<?xml version="1.0" encoding="UTF-8" standalone="no"?>
<svg
   xmlns:dc="http://purl.org/dc/elements/1.1/"
   xmlns:cc="http://creativecommons.org/ns#"
   xmlns:rdf="http://www.w3.org/1999/02/22-rdf-syntax-ns#"
   xmlns:svg="http://www.w3.org/2000/svg"
   xmlns="http://www.w3.org/2000/svg"
   xmlns:sodipodi="http://sodipodi.sourceforge.net/DTD/sodipodi-0.dtd"
   xmlns:inkscape="http://www.inkscape.org/namespaces/inkscape"
   version="1.1"
   id="Ebene_1"
   x="0px"
   y="0px"
   viewBox="0 0 14 12"
   xml:space="preserve"
   sodipodi:docname="eah-logoneu.svg"
   width="14"
   height="12"
   inkscape:version="0.92.3 (2405546, 2018-03-11)"><metadata
   id="metadata25"><rdf:RDF><cc:Work
       rdf:about=""><dc:format>image/svg+xml</dc:format><dc:type
         rdf:resource="http://purl.org/dc/dcmitype/StillImage" /><dc:title></dc:title></cc:Work></rdf:RDF></metadata><defs
   id="defs23" /><sodipodi:namedview
   pagecolor="#ffffff"
   bordercolor="#666666"
   borderopacity="1"
   objecttolerance="10"
   gridtolerance="10"
   guidetolerance="10"
   inkscape:pageopacity="0"
   inkscape:pageshadow="2"
   inkscape:window-width="1840"
   inkscape:window-height="887"
   id="namedview21"
   showgrid="false"
   inkscape:zoom="2.4041631"
   inkscape:cx="-59.735021"
   inkscape:cy="-3.88883"
   inkscape:window-x="0"
   inkscape:window-y="0"
   inkscape:window-maximized="0"
   inkscape:current-layer="Ebene_1" />
<polygon
   points="500.2,299.3 510,316.2 490.5,316.2 "
   id="polygon2"
   style="fill:#00aba0;stroke-width:4.89342976"
   transform="matrix(0.20497804,0,0,0.20373514,-93.019035,-56.658742)" />
<polygon
   points="500,335.8 490.1,318.8 509.7,318.8 "
   id="polygon4"
   style="fill:#00aba0;stroke-width:4.89342976"
   transform="matrix(0.20497804,0,0,0.20373514,-93.019035,-56.658742)" />
<polygon
   points="478.1,298 497.8,298 488,315.1 "
   id="polygon6"
   style="fill:#00aba0;stroke-width:4.89342976"
   transform="matrix(0.20497804,0,0,0.20373514,-93.019035,-56.658742)" />
<polygon
   points="465.9,316.2 475.7,299.2 485.5,316.2 "
   id="polygon8"
   style="fill:#00aba0;stroke-width:4.89342976"
   transform="matrix(0.20497804,0,0,0.20373514,-93.019035,-56.658742)" />
<polygon
   points="476.1,335.9 466.1,318.8 485.9,318.8 "
   id="polygon10"
   style="fill:#00aba0;stroke-width:4.89342976"
   transform="matrix(0.20497804,0,0,0.20373514,-93.019035,-56.658742)" />
<polygon
   points="453.8,337 463.7,320 473.6,337 "
   id="polygon12"
   style="fill:#00aba0;stroke-width:4.89342976"
   transform="matrix(0.20497804,0,0,0.20373514,-93.019035,-56.658742)" />
<polygon
   points="497.6,337 478.5,337 488,320.4 "
   id="polygon14"
   style="fill:#00aba0;stroke-width:4.89342976"
   transform="matrix(0.20497804,0,0,0.20373514,-93.019035,-56.658742)" />
<polygon
   points="522.1,337 502.3,337 512.1,319.9 "
   id="polygon16"
   style="fill:#00aba0;stroke-width:4.89342976"
   transform="matrix(0.20497804,0,0,0.20373514,-93.019035,-56.658742)" />
<polygon
   points="497.9,295.3 477.9,295.3 487.9,278.1 "
   id="polygon18"
   style="fill:#00aba0;stroke-width:4.89342976"
   transform="matrix(0.20497804,0,0,0.20373514,-93.019035,-56.658742)" />
</svg>
